<?xml version="1.0" ?><svg data-name="Layer 1" id="Layer_1" viewBox="0 0 128 128" xmlns="http://www.w3.org/2000/svg"><title/><path d="M33.72754,112.793a2.00089,2.00089,0,0,0-1.52686-.792,1.96371,1.96371,0,0,0-1.57715.68652l-4.416,5.08008-7.06982-4.03809a1.99986,1.99986,0,0,0-2.85059.99707l-2.58984,6.51074-6.1001-1.55078a2.00166,2.00166,0,0,0-1.79443.41992l-5.10449,4.375a2.00015,2.00015,0,0,0,2.60352,3.03711l4.31592-3.69922,5.52478,1.40442,1.01526,1.57507a2.00032,2.00032,0,0,0,3.3623-2.168l-.53674-.8327,2.16956-5.45343,6.49512,3.71a2.00049,2.00049,0,0,0,2.50146-.42383l3.876-4.459,7.37988,9.75a2,2,0,0,0,3.18945-2.41406Z"/><circle cx="116" cy="12" r="6"/><circle cx="12" cy="12" r="6"/><path d="M18,38H35V30H23.12A5.03436,5.03436,0,0,0,18,34.93Z"/><path d="M127.3,124.48l-5.1-4.37a1.99824,1.99824,0,0,0-1.8-.42l-6.1,1.55-2.59-6.51a1.9945,1.9945,0,0,0-2.57-1.13l-6.31,2.4-3.58-3.44a1.94276,1.94276,0,0,0-1.44-.56,2.03894,2.03894,0,0,0-1.41.64l-7,7.54,3.12-15.57a3.92843,3.92843,0,0,0,.48-1.96V86H81v16.65a3.92843,3.92843,0,0,0,.48,1.96l3.12,15.57-7-7.54a2.03894,2.03894,0,0,0-1.41-.64,1.92785,1.92785,0,0,0-1.44.56L71.17,116l-6.31-2.4a1.9908,1.9908,0,0,0-2.57,1.13l-2.59,6.51-6.1-1.55a1.99824,1.99824,0,0,0-1.8.42l-5.1,4.37a2.00008,2.00008,0,0,0,2.6,3.04l4.32-3.7,5.52,1.4,1.02,1.58a1.98784,1.98784,0,0,0,1.68005.91,1.99115,1.99115,0,0,0,1.68-3.08l-.54-.83,2.3-5.76,5.65,2.15a2.0101,2.0101,0,0,0,2.1-.43l3.02-2.91,9.48,10.23a.26651.26651,0,0,1,.06.05c.02.01.03.03.05.05a.61008.61008,0,0,0,.1.07,1.09424,1.09424,0,0,0,.17.13,1.3778,1.3778,0,0,0,.34.18,1.07,1.07,0,0,0,.19.07c.06.01.12.03.18.04s.13.02.19.03c.07,0,.13.00995.19.00995s.13-.00995.2-.00995l.18-.03a1.33084,1.33084,0,0,0,.19-.05.63688.63688,0,0,0,.18-.06.75655.75655,0,0,0,.18-.09.50739.50739,0,0,0,.16-.09,1.09424,1.09424,0,0,0,.17-.13.36.36,0,0,0,.1-.07c.02-.02.03-.04.05-.05a.26651.26651,0,0,1,.06-.05l9.48-10.23,3.02,2.91a2.0101,2.0101,0,0,0,2.1.43l5.65-2.15,2.3,5.76-.54.83a1.99993,1.99993,0,0,0,3.36,2.17l1.02-1.58,5.52-1.4,4.32,3.7a2.00008,2.00008,0,1,0,2.6-3.04ZM87,111.8,85.84,106H88.16Z"/><path d="M81,70a4.01615,4.01615,0,0,0-4,4v4a3.99891,3.99891,0,0,0,4,4H93a3.99891,3.99891,0,0,0,4-4V73.99988A4.02361,4.02361,0,0,0,93,70Zm12,8H81V74H93Z"/><path d="M0,103a2.00591,2.00591,0,0,0,2,2H55.05C62.2,105,68,99.63,68,93S62.2,81,55.05,81H52V76H64.76A3.26079,3.26079,0,0,0,68,72.72V28a3.98949,3.98949,0,0,0-3.8-3.98L69.16,14H78a1.99943,1.99943,0,0,1,2,2l.05,50.06A7.44855,7.44855,0,0,1,81,66H93a8.25384,8.25384,0,0,1,1,.06V10A10.01648,10.01648,0,0,0,84,0H64.3a6.04742,6.04742,0,0,0-5.22,3.04L49.06,21.88,42.86,21A3.88184,3.88184,0,0,0,39,25V42H4c-1.79,0-4,1.74-4,3.55V72.72A3.26079,3.26079,0,0,0,3.24,76H38v5H12.95C5.8,81,0,86.37,0,93a11.43854,11.43854,0,0,0,3.32,8H2A2.00587,2.00587,0,0,0,0,103Zm46-8a2,2,0,1,1,2-2A2.00591,2.00591,0,0,1,46,95Zm2-14H42V76h6Zm6,10a2,2,0,1,1-2,2A2.00587,2.00587,0,0,1,54,91ZM4,72V46.08c.05-.03.1-.06.14-.08H43V25.06l20.44,2.9.28.04H64V58H26a2,2,0,0,0,0,4H64V72ZM38,91a2,2,0,1,1-2,2A2.00587,2.00587,0,0,1,38,91Zm-8,0a2,2,0,1,1-2,2A2.00587,2.00587,0,0,1,30,91Zm-8,0a2,2,0,1,1-2,2A2.00587,2.00587,0,0,1,22,91Zm-8,0a2,2,0,1,1-2,2A2.00587,2.00587,0,0,1,14,91Z"/><path d="M104.33447,111a1.98729,1.98729,0,0,0,1.28857-.47168l2.6665-2.25a1.99968,1.99968,0,1,0-2.5791-3.05664l-2.6665,2.25A1.99978,1.99978,0,0,0,104.33447,111Z"/><path d="M97,106.75a2,2,0,0,0,4,0V103a2,2,0,0,0-4,0Z"/><path d="M65.47168,105.46a1.99985,1.99985,0,0,0,.23877,2.81836l2.6665,2.25a1.99968,1.99968,0,1,0,2.5791-3.05664l-2.6665-2.25A1.99841,1.99841,0,0,0,65.47168,105.46Z"/><path d="M73,103v3.75a2,2,0,0,0,4,0V103a2,2,0,0,0-4,0Z"/><path d="M52,44a2.0001,2.0001,0,0,0,2-2V38a2,2,0,0,0-4,0v4A2.0001,2.0001,0,0,0,52,44Z"/></svg>