<?xml version="1.0" ?><svg data-name="Layer 1" id="Layer_1" viewBox="0 0 128 128" xmlns="http://www.w3.org/2000/svg"><title/><path d="M126,91h-4a2,2,0,0,0,0,4h4a2,2,0,0,0,0-4Z"/><path d="M126,83h-8.10162a19.7313,19.7313,0,0,1,0,4H126a2,2,0,0,0,0-4Z"/><path d="M2,96.49746H6a2,2,0,0,0,0-4H2a2,2,0,0,0,0,4Z"/><circle cx="98" cy="86.49746" r="3"/><path d="M126,99.49746H107.29a16,16,0,1,0-18.58,0H39.29a16,16,0,1,0-18.58,0H2a2,2,0,0,0,0,4H126a2,2,0,0,0,0-4Zm-96-6a7,7,0,1,1,7-7A7.00771,7.00771,0,0,1,30,93.49746Zm68,0a7,7,0,1,1,7-7A7.00771,7.00771,0,0,1,98,93.49746Z"/><circle cx="30" cy="86.49746" r="3"/><path d="M98,107.49746H30a2,2,0,0,0,0,4H98a2,2,0,0,0,0-4Z"/><path d="M4.51,84.49746H2a2,2,0,0,0,0,4h8.1a18.87723,18.87723,0,0,1-.1-2,19.996,19.996,0,0,1,39.92-1.7h.06c.01.72.02,1.4.02,1.7a18.87723,18.87723,0,0,1-.1,2H78.1a1.95263,1.95263,0,0,1-.02-.24,17.01647,17.01647,0,0,1-.08-1.76,32.56872,32.56872,0,0,1,.39-3.93,17.45528,17.45528,0,0,1,.54-2.07H72a2,2,0,0,1,0-4h8.7a19.97314,19.97314,0,0,1,34.61,0,19.39145,19.39145,0,0,1,1.77,4H124a2.00591,2.00591,0,0,0,2-2v-16a2.00641,2.00641,0,0,0-.92-1.68l-12.44-8a1.92858,1.92858,0,0,0-.65-.26,1.65243,1.65243,0,0,0-.05-.54l-4-16a.94138.94138,0,0,0-.03-.09,1.9665,1.9665,0,0,0,.31-.39l5.49005-9c.00995-.01.00995-.03.02-.04H115a2,2,0,0,0,0-4H72.69l-.01587.00183a1.98181,1.98181,0,0,0-.49689.07263c-.06158.01666-.12.041-.17944.06335a1.996,1.996,0,0,0-.28.12915,2.02494,2.02494,0,0,0-.19525.12219,1.99915,1.99915,0,0,0-.21222.18433,2.06357,2.06357,0,0,0-.16193.15833,1.97951,1.97951,0,0,0-.2851.44641l-1.40375,3.11444L67.76,30.56746l-.66,1.46-.00079-.00061-1.48395,3.29242A1.99959,1.99959,0,0,1,63.792,36.49746H2a2,2,0,0,0,0,4H3.99l-1.94,8.56a2.00187,2.00187,0,0,0,1.05,2.23l11.9,5.96-10.36,26.65A2.1533,2.1533,0,0,0,4.51,84.49746Zm103.43-32H93v-16h11.01a1.95961,1.95961,0,0,0,.05.48ZM6.3,48.40743l1.79-7.91H66.38a2.21009,2.21009,0,0,0,1.82-1.18l2.32-5.14,3.46-7.68h35.07l-3.66,6H82.82a2.004,2.004,0,0,0-1.9,1.36l-4.9,14.64H39a2,2,0,0,0,0,4H74.68l-1.34,4H54a2,2,0,0,0,0,4H72l-2.35,7H44.38Z"/><path d="M21.64,29.88747a.0098.0098,0,0,1,.01-.01l2.96-4.31a2.54018,2.54018,0,0,1,.27.05l11.17,4.01a2.0947,2.0947,0,0,1,.66.39l2.76324,2.48H62.49951l1.36578-3.03-1.65527-1.31a2.01528,2.01528,0,0,0-1.25-.43H53.57l-4.73-7.24a1.99648,1.99648,0,0,0-1.86-.89l-9.85.93-9.32-3.88a2.00279,2.00279,0,0,0-.9-.14,1.93889,1.93889,0,0,0-1.29.59,1.49358,1.49358,0,0,0-.23.27l-2.92,4.25-3.68,5.36-3.41.98a1.97461,1.97461,0,0,0-1.03.69l-1.89,2.43-1.10541,1.42H32.21405l-8.074-2.9-3.25.93a1.77421,1.77421,0,0,0,.52-.39A1.79577,1.79577,0,0,0,21.64,29.88747Z"/></svg>