<?xml version="1.0" ?><svg class="icon-svg" data-name="Layer 1" id="Layer_1" viewBox="0 0 128 128" xmlns="http://www.w3.org/2000/svg"><title/><path d="M64,66A15,15,0,1,0,79,81,15.01672,15.01672,0,0,0,64,66Z"/><path d="M126,93h-8V69h8a2,2,0,0,0,0-4h-8V63a6.00656,6.00656,0,0,0-6-6h-2a6.00656,6.00656,0,0,0-6,6v2H80.49988A23.05754,23.05754,0,0,0,71,59.09161V53h2a2.0001,2.0001,0,0,0,2-2V45H92a7,7,0,0,0,0-14H71V27a4.00427,4.00427,0,0,0-4-4H61a4.00427,4.00427,0,0,0-4,4v4H36a7,7,0,0,0,0,14H53v6a2.0001,2.0001,0,0,0,2,2h2v6.09161A23.05754,23.05754,0,0,0,47.50012,65H24V63a6.00656,6.00656,0,0,0-6-6H16a6.00656,6.00656,0,0,0-6,6v2H2a2,2,0,0,0,0,4h8V93H2a2,2,0,0,0,0,4h8v2a6.00656,6.00656,0,0,0,6,6h2a6.00656,6.00656,0,0,0,6-6V97H47.50012a22.94614,22.94614,0,0,0,32.99976,0H104v2a6.00656,6.00656,0,0,0,6,6h2a6.00656,6.00656,0,0,0,6-6V97h8a2,2,0,0,0,0-4ZM87.5,35H92a3,3,0,0,1,0,6H87.5Zm-47,6H36a3,3,0,0,1,0-6h4.5ZM61,27h6v4H61ZM57,45H71v4H57ZM44.38751,93H32V85a2,2,0,0,0-4,0v8H24V69H44.38751a22.94829,22.94829,0,0,0,0,24ZM64,100A19,19,0,1,1,83,81,19.02161,19.02161,0,0,1,64,100Zm40-7H83.61249a22.94829,22.94829,0,0,0,0-24H96v8a2,2,0,0,0,4,0V69h4Z"/></svg>