<svg width="128" height="128" xmlns="http://www.w3.org/2000/svg">
  <g>
    <title>Layer 1</title>
    <path fill="#ff6f70" d="M118,55l-15,0c-5.5,0 -9,-4.5 -9,-10l0,-18l12,0l12,28z" class="st0"/>
    <rect id="svg_21" height="81.554063" width="78.923287" y="27.417263" x="3.372564" fill-opacity="null" stroke-opacity="null" stroke-width="null" stroke="null" fill="#ff6f70"/>
    <rect id="svg_20" height="14.58885" width="16.023819" y="28.373909" x="34.941878" stroke-opacity="null" stroke-width="null" stroke="null" fill="#b61f26"/>
    <path fill="#b61f26" d="M109.5,30l1.5,0c1.7,0 3,-1.3 3,-3s-1.3,-3 -3,-3l-17,0c-1.7,0 -3,1.3 -3,3l0,18.3c0,7.2 5.8,13 13,13l10,0c4.4,16.7 7,35.9 7,48.7l-36,0l0,-80c0,-1.7 -1.3,-3 -3,-3l-78,0c-1.7,0 -3,1.3 -3,3l0,83c0,1.7 1.3,3 3,3l120,0l0,0l0,0c1.7,0 3,-1.3 3,-3l0,-2.7c0.1,-18.5 -5.8,-57.8 -17.5,-77.3zM103.5,52.3c-3.9,0 -7,-3.1 -7,-7l0,-15.3l5.3,0c3.8,5.2 7.2,13.2 10,22.3l-8.3,0z"/>
    <path fill="#b61f26" d="M41.5,52.3l12,0l0,12l-12,0l0,-12zm-30,62l0,-62l24,0l0,15c0,1.7 1.3,3 3,3l18,0c1.7,0 3,-1.3 3,-3l0,-15l24,0l0,77l-72,0l0,-15z"/>
    <ellipse fill="#ff6f70" id="svg_13" ry="10" rx="10" cy="114" cx="104" class="st0"/>
    <ellipse fill="#ff6f70" id="svg_14" ry="10" rx="10" cy="113.760839" cx="29" class="st0"/>
    <path fill="#b61f26" d="M104,101c-7.2,0 -13,5.8 -13,13c0,2.6 0.8,5 2.1,7l-53.2,0c1.3,-2 2.1,-4.4 2.1,-7c0,-7.2 -5.8,-13 -13,-13s-13,5.8 -13,13c0,2.6 0.8,5 2.1,7l-4.1,0c-1.7,0 -3,1.3 -3,3s1.3,3 3,3l90,0c7.2,0 13,-5.8 13,-13s-5.8,-13 -13,-13zm-82,13c0,-3.9 3.1,-7 7,-7s7,3.1 7,7s-3.1,7 -7,7s-7,-3.1 -7,-7zm82,7c-3.9,0 -7,-3.1 -7,-7s3.1,-7 7,-7s7,3.1 7,7s-3.1,7 -7,7z"/>
    <circle fill="#b61f26" r="3" cy="124" cx="4" class="st1"/>
  </g>
</svg>
